<?xml version='1.0' encoding='utf-8'?>
<svg xmlns="http://www.w3.org/2000/svg" version="1.1" data-diagram-type="DESCRIPTION" style="width:244px;height:279px;background:#FFFFFF;" width="244px" height="279px" viewBox="0 0 244 279" zoomAndPan="magnify" preserveAspectRatio="none" contentStyleType="text/css">
  <defs />
  <g font-family="sans-serif" lengthAdjust="spacing">
    <g class="entity" data-qualified-name="alertmanager" id="ent0001" data-source-line="2">
      <rect x="7" y="7" width="223.859" height="46.297" fill="#F1F1F1" style="stroke:#181818;stroke-width:0.5;" rx="2.5" ry="2.5" />
      <rect x="210.859" y="12" width="15" height="10" fill="#F1F1F1" style="stroke:#181818;stroke-width:0.5;" />
      <rect x="208.859" y="14" width="4" height="2" fill="#F1F1F1" style="stroke:#181818;stroke-width:0.5;" />
      <rect x="208.859" y="18" width="4" height="2" fill="#F1F1F1" style="stroke:#181818;stroke-width:0.5;" />
      <text x="22" y="39.995" fill="#000" font-size="14" textLength="183.859" font-family="DejaVu Sans">Prometheus alertmanager</text>
    </g>
    <g class="entity" data-qualified-name="ptn" id="ent0002" data-source-line="3">
      <rect x="86.73" y="113.3" width="64.404" height="46.297" fill="#F1F1F1" style="stroke:#181818;stroke-width:0.5;" rx="2.5" ry="2.5" />
      <rect x="131.134" y="118.3" width="15" height="10" fill="#F1F1F1" style="stroke:#181818;stroke-width:0.5;" />
      <rect x="129.134" y="120.3" width="4" height="2" fill="#F1F1F1" style="stroke:#181818;stroke-width:0.5;" />
      <rect x="129.134" y="124.3" width="4" height="2" fill="#F1F1F1" style="stroke:#181818;stroke-width:0.5;" />
      <text x="101.73" y="146.295" fill="#000" font-size="14" textLength="24.404" font-family="DejaVu Sans">PtN</text>
    </g>
    <g class="entity" data-qualified-name="ntfy" id="ent0003" data-source-line="4">
      <rect x="60.46" y="219.59" width="116.945" height="46.297" fill="#F1F1F1" style="stroke:#181818;stroke-width:0.5;" rx="2.5" ry="2.5" />
      <rect x="157.405" y="224.59" width="15" height="10" fill="#F1F1F1" style="stroke:#181818;stroke-width:0.5;" />
      <rect x="155.405" y="226.59" width="4" height="2" fill="#F1F1F1" style="stroke:#181818;stroke-width:0.5;" />
      <rect x="155.405" y="230.59" width="4" height="2" fill="#F1F1F1" style="stroke:#181818;stroke-width:0.5;" />
      <text x="75.46" y="252.585" fill="#000" font-size="14" textLength="76.945" font-family="DejaVu Sans">ntfy-server</text>
    </g>
    <g class="link" data-entity-1="ent0001" data-entity-2="ent0002" id="lnk4" data-source-line="6" data-link-type="dependency">
      <path d="M118.93,53.78 C118.93,71.27 118.93,90.38 118.93,107.86" style="stroke:#181818;stroke-width:1;" fill="none" id="alertmanager-to-ptn" />
      <polygon points="118.93,112.86,122.93,103.86,118.93,107.86,114.93,103.86,118.93,112.86" fill="#181818" style="stroke:#181818;stroke-width:1;stroke-linejoin:miter;stroke-miterlimit:10;" />
      <text x="52.794" y="102.365" fill="#000" font-size="13" textLength="59.452" font-family="DejaVu Sans">http-post</text>
    </g>
    <g class="link" data-entity-1="ent0002" data-entity-2="ent0003" id="lnk5" data-source-line="7" data-link-type="dependency">
      <path d="M118.93,160.08 C118.93,177.57 118.93,196.67 118.93,214.15" style="stroke:#181818;stroke-width:1;" fill="none" id="ptn-to-ntfy" />
      <polygon points="118.93,219.15,122.93,210.15,118.93,214.15,114.93,210.15,118.93,219.15" fill="#181818" style="stroke:#181818;stroke-width:1;stroke-linejoin:miter;stroke-miterlimit:10;" />
      <text x="52.794" y="208.655" fill="#000" font-size="13" textLength="59.452" font-family="DejaVu Sans">http-post</text>
    </g>
  </g>
</svg>
